<?xml version="1.0" standalone="no"?>
<!DOCTYPE svg PUBLIC "-//W3C//DTD SVG 20010904//EN"
 "http://www.w3.org/TR/2001/REC-SVG-20010904/DTD/svg10.dtd">
<svg version="1.0" xmlns="http://www.w3.org/2000/svg"
 width="850.000000pt" height="771.000000pt" viewBox="0 0 850.000000 771.000000"
 preserveAspectRatio="xMidYMid meet">

<g transform="translate(0.000000,771.000000) scale(0.100000,-0.100000)"
fill="#000000" stroke="none">
<path d="M5935 7700 c-485 -50 -909 -258 -1256 -616 -146 -151 -250 -292 -372
-503 l-66 -113 -32 63 c-87 174 -258 407 -412 561 -321 323 -699 511 -1177
585 -173 27 -576 24 -757 -5 -507 -82 -917 -288 -1233 -619 -233 -244 -397
-527 -509 -878 -194 -605 -149 -1228 135 -1898 412 -971 1313 -2023 2874
-3358 276 -236 933 -777 1105 -910 6 -4 35 11 65 34 566 428 1003 781 1415
1142 768 673 1405 1345 1849 1953 784 1073 1074 2034 870 2892 -56 238 -170
503 -297 693 -352 524 -909 853 -1622 957 -161 23 -447 33 -580 20z m-3123
-2021 c21 -24 21 -31 58 -649 17 -278 35 -572 40 -655 6 -82 24 -370 40 -640
16 -269 33 -537 37 -595 l7 -105 8 70 c4 39 12 105 17 149 6 49 15 85 25 95
14 13 45 17 174 19 l157 3 52 50 c62 58 155 105 228 114 100 13 222 -35 307
-120 l35 -35 188 2 188 3 69 170 c38 93 76 178 85 187 19 21 72 24 96 6 9 -7
43 -89 74 -183 57 -166 59 -169 90 -176 32 -6 32 -5 37 35 3 22 28 383 56 801
95 1407 93 1385 119 1406 31 26 67 24 95 -4 26 -26 23 4 56 -542 89 -1480 111
-1841 118 -1915 l8 -85 8 110 c9 130 24 172 61 181 15 4 99 3 186 0 l159 -8
58 52 c31 28 82 63 112 78 47 23 67 27 145 27 79 0 97 -4 145 -28 31 -15 77
-48 104 -72 l48 -45 359 0 c236 0 359 3 359 10 0 18 64 50 101 50 49 0 100
-36 118 -84 41 -109 -85 -208 -187 -146 -31 19 -50 20 -422 20 l-389 0 -59 59
c-130 130 -218 131 -354 2 l-71 -66 -161 0 -160 0 -23 -255 c-13 -140 -36
-406 -53 -590 -30 -330 -30 -335 -56 -357 -32 -29 -56 -29 -90 0 l-27 24 -63
1034 c-35 569 -67 1098 -70 1177 -4 78 -9 140 -11 138 -2 -2 -22 -264 -43
-582 -51 -749 -48 -720 -69 -746 -23 -27 -75 -29 -102 -2 -11 11 -29 54 -40
96 -22 80 -30 88 -90 88 -38 0 -64 35 -95 132 -15 49 -31 85 -35 80 -4 -4 -24
-47 -44 -97 -57 -139 -32 -129 -330 -133 l-254 -3 -63 62 c-102 101 -175 121
-275 75 -29 -14 -77 -50 -108 -80 -52 -53 -58 -56 -104 -56 -26 0 -89 -3 -138
-6 l-90 -7 -12 -121 c-7 -67 -21 -211 -31 -321 -65 -670 -70 -719 -85 -742
-35 -54 -113 -31 -127 38 -4 19 -19 228 -33 464 -14 237 -43 718 -65 1070 -22
352 -40 662 -40 689 0 27 -3 46 -6 43 -4 -4 -24 -289 -44 -633 -36 -620 -37
-627 -59 -646 -26 -20 -62 -23 -91 -8 -11 6 -29 42 -45 90 l-27 80 -48 0 c-70
0 -93 24 -125 133 -14 48 -28 87 -30 87 -2 0 -18 -43 -35 -95 -20 -60 -39
-100 -53 -110 -18 -13 -91 -15 -500 -15 l-478 0 -26 26 c-20 20 -24 31 -19 57
13 64 -7 62 483 67 l446 5 58 174 c32 96 66 182 75 192 23 25 78 25 101 -1 10
-10 43 -98 73 -195 l53 -175 38 0 c35 0 38 2 43 33 3 17 28 439 57 937 28 498
56 999 63 1114 l13 209 28 24 c32 28 69 25 97 -8z"/>
</g>
</svg>
