<?xml version="1.0" standalone="no"?>
<!DOCTYPE svg PUBLIC "-//W3C//DTD SVG 20010904//EN"
 "http://www.w3.org/TR/2001/REC-SVG-20010904/DTD/svg10.dtd">
<svg version="1.0" xmlns="http://www.w3.org/2000/svg"
 width="900.000000pt" height="1086.000000pt" viewBox="0 0 900.000000 1086.000000"
 preserveAspectRatio="xMidYMid meet">

<g transform="translate(0.000000,1086.000000) scale(0.100000,-0.100000)"
fill="#000000" stroke="none">
<path d="M3415 10434 c-470 -52 -857 -164 -1255 -364 -329 -164 -420 -230
-692 -499 -183 -180 -218 -219 -218 -243 0 -60 132 -165 305 -243 44 -20 88
-40 97 -45 36 -20 335 -33 623 -27 402 9 644 34 1000 104 226 44 409 55 501
28 116 -33 326 -177 449 -306 81 -85 136 -183 167 -296 21 -75 22 -97 22 -613
1 -455 3 -538 16 -557 30 -46 56 -40 106 26 102 136 264 270 367 305 140 47
256 -15 319 -173 20 -50 23 -73 22 -206 0 -134 -3 -160 -28 -239 -62 -206
-172 -383 -338 -548 -97 -97 -108 -111 -108 -143 0 -46 32 -108 69 -134 54
-38 52 -40 195 139 402 502 586 927 636 1469 14 148 14 525 0 677 -62 679
-277 1206 -606 1486 -247 211 -505 326 -869 389 -159 28 -585 35 -780 13z
m-1855 -1108 c195 -35 441 -65 627 -75 228 -13 389 0 743 59 152 26 364 50
420 49 55 -2 43 -4 -90 -19 -58 -7 -144 -20 -192 -30 -111 -24 -396 -75 -513
-92 -111 -16 -471 -16 -650 1 -157 14 -363 43 -462 66 -64 15 -73 19 -73 39 0
29 8 37 34 31 12 -3 82 -16 156 -29z"/>
<path d="M4732 6154 l-61 -86 21 -22 c44 -46 104 -228 122 -376 4 -25 11 -70
16 -100 17 -96 23 -492 11 -680 -19 -289 -62 -642 -136 -1130 -34 -224 -112
-556 -272 -1171 l-28 -106 -55 -11 c-58 -11 -135 -40 -127 -48 2 -2 15 0 29 5
43 16 132 23 161 12 20 -8 27 -17 27 -38 0 -62 -8 -70 -68 -78 -156 -18 -272
-140 -272 -286 0 -47 -1 -48 -37 -58 -21 -6 -55 -11 -76 -11 -32 0 -37 -3 -33
-17 2 -10 8 -34 11 -53 19 -92 112 -214 203 -263 59 -32 151 -57 210 -57 64 0
190 29 249 57 171 80 277 286 244 470 -7 38 -23 93 -36 122 -30 64 -114 154
-177 191 -27 14 -46 29 -44 31 16 15 194 716 250 979 50 235 134 803 165 1110
60 588 49 1008 -33 1330 -34 131 -53 187 -83 239 -27 46 -100 131 -113 131 -4
0 -34 -39 -68 -86z m-271 -3886 c51 -15 114 -69 142 -122 33 -62 31 -166 -5
-226 -75 -129 -245 -165 -361 -76 -81 62 -115 168 -85 270 15 51 102 141 149
154 48 14 115 14 160 0z"/>
<path d="M4611 5968 c-5 -13 -19 -54 -30 -93 -49 -159 -167 -364 -319 -554
-229 -286 -645 -666 -1084 -989 -53 -39 -101 -80 -107 -89 -12 -23 -56 -382
-76 -623 -18 -229 -55 -758 -55 -797 1 -25 2 -26 12 -9 6 10 23 197 39 415 39
548 80 954 99 974 4 4 64 -122 134 -280 71 -158 132 -292 136 -297 5 -4 16 7
25 25 10 19 56 99 103 179 127 217 126 216 115 205 -11 -10 -157 -250 -203
-333 -13 -23 -28 -41 -32 -40 -10 4 -259 555 -262 578 0 9 53 57 129 115 804
611 1250 1116 1371 1553 21 78 24 109 5 60z"/>
<path d="M4749 5583 c-13 -16 -12 -17 4 -4 16 13 21 21 13 21 -2 0 -10 -8 -17
-17z"/>
<path d="M2125 5460 c-81 -111 -181 -381 -261 -708 l-37 -152 -76 6 c-161 13
-302 -47 -447 -191 -84 -82 -97 -100 -147 -205 -58 -121 -143 -368 -154 -446
-5 -37 -2 -50 17 -76 l22 -30 -16 -111 c-31 -220 -39 -362 -27 -483 20 -195
74 -343 176 -479 53 -70 56 -67 -87 -79 -76 -6 -92 -4 -127 14 -95 48 -279 68
-368 40 -141 -46 -96 -148 87 -195 91 -24 240 -17 295 12 29 15 73 24 165 32
69 6 136 14 150 17 19 4 43 -9 104 -55 44 -33 123 -84 175 -113 53 -29 109
-65 125 -81 64 -63 200 -109 321 -109 82 0 118 11 140 46 15 22 15 27 1 55
-47 90 -278 171 -409 144 -46 -10 -48 -10 -144 46 -54 31 -113 67 -131 81
l-32 24 87 42 c253 124 412 326 538 687 35 99 46 121 71 136 24 14 40 42 72
119 127 306 168 526 127 687 -36 142 -146 300 -252 362 -28 16 -43 32 -43 45
0 37 91 380 137 512 24 72 60 163 78 202 l35 72 -56 83 c-31 46 -59 88 -64 92
-4 5 -24 -15 -45 -43z m0 -122 c-71 -137 -125 -286 -152 -425 -11 -56 -23 -95
-32 -98 -8 -3 -15 -4 -17 -2 -5 5 45 195 76 289 41 122 163 358 185 358 2 0
-25 -55 -60 -122z m-302 -963 c170 -44 276 -154 306 -318 19 -104 -16 -262
-110 -496 -27 -68 -49 -132 -49 -143 0 -11 7 -35 16 -54 15 -32 15 -38 -11
-116 -36 -111 -135 -316 -189 -392 -91 -127 -234 -237 -375 -287 l-64 -23 -51
56 c-179 198 -229 446 -175 870 20 160 21 164 53 193 26 25 38 51 65 145 37
130 98 290 135 353 14 23 49 67 79 98 109 115 227 151 370 114z m-743 -753 c0
-10 -7 -65 -16 -123 -22 -143 -22 -360 0 -473 31 -161 108 -315 213 -427 44
-47 51 -68 19 -56 -31 12 -130 147 -177 242 -70 141 -90 228 -96 410 -5 137
11 332 34 422 6 27 23 31 23 5z m953 -318 c10 -10 -51 -173 -113 -300 -135
-279 -305 -428 -568 -498 -92 -25 -317 -54 -328 -43 -14 14 11 27 54 27 116 1
302 42 409 90 218 99 378 303 494 633 33 94 39 104 52 91z m-527 -899 c45 -30
98 -62 118 -72 20 -9 36 -23 36 -30 0 -20 -11 -16 -98 36 -104 62 -163 106
-155 114 10 11 12 10 99 -48z"/>
<path d="M2475 5048 c-19 -114 -52 -467 -69 -748 -6 -88 15 -500 25 -500 3 0
49 48 101 108 102 115 281 292 296 292 5 0 3 -36 -4 -80 -39 -245 -76 -617
-94 -940 -13 -233 -13 -520 0 -540 7 -10 10 27 10 115 0 365 40 877 101 1320
20 143 22 151 51 177 l30 26 -55 114 c-79 163 -122 305 -134 443 -6 77 -23
114 -23 52 0 -118 67 -351 145 -507 38 -76 44 -95 33 -104 -7 -7 -53 -46 -102
-87 -49 -40 -146 -136 -215 -212 l-126 -139 -8 54 c-4 29 -8 168 -9 308 -1
239 13 461 41 675 15 111 23 205 17 205 -3 0 -8 -15 -11 -32z"/>
<path d="M3694 4188 c-4 -7 -14 -24 -22 -38 -14 -24 -13 -24 3 -5 20 24 37 55
31 55 -3 0 -8 -6 -12 -12z"/>
<path d="M2900 4100 c-11 -11 -20 -29 -20 -40 0 -11 9 -29 20 -40 11 -11 29
-20 40 -20 11 0 29 9 40 20 11 11 20 29 20 40 0 11 -9 29 -20 40 -11 11 -29
20 -40 20 -11 0 -29 -9 -40 -20z"/>
<path d="M3644 4108 c-4 -7 -14 -24 -22 -38 -14 -24 -13 -24 3 -5 20 24 37 55
31 55 -3 0 -8 -6 -12 -12z"/>
<path d="M2852 3534 c-42 -29 -17 -104 35 -104 20 0 53 38 53 60 0 22 -33 60
-53 60 -7 0 -23 -7 -35 -16z"/>
<path d="M2808 2919 c-21 -12 -24 -69 -6 -87 17 -17 64 -15 82 4 48 47 -17
118 -76 83z"/>
<path d="M6880 1680 c-26 -14 -30 -19 -15 -19 11 0 31 8 45 19 32 25 15 25
-30 0z"/>
<path d="M6700 1596 c-106 -49 -135 -79 -38 -39 89 36 138 62 138 73 0 13 8
16 -100 -34z"/>
</g>
</svg>
